<svg xmlns="http://www.w3.org/2000/svg" width="1440" height="340" viewBox="0 0 1440 340" fill="none">
<path fill-rule="evenodd" clip-rule="evenodd" d="M-687 0L-592.917 56.4583C-498.833 112.917 -310.667 225.833 -122.5 203.25C65.6667 180.667 253.833 22.5833 442 22.5833C630.167 22.5833 818.333 180.667 1006.5 248.417C1194.67 316.167 1382.83 293.583 1476.92 282.292L1571 271V542H1476.92C1382.83 542 1194.67 542 1006.5 542C818.333 542 630.167 542 442 542C253.833 542 65.6667 542 -122.5 542C-310.667 542 -498.833 542 -592.917 542H-687V0Z" fill="white"/>
</svg>