<svg xmlns="http://www.w3.org/2000/svg" width="1440" height="432" viewBox="0 0 1440 432" fill="none">
<path fill-rule="evenodd" clip-rule="evenodd" d="M2045 432L1931.17 404.75C1817.33 377.5 1589.67 323 1362 254.875C1134.33 186.75 906.667 105 679 132.25C451.333 159.5 223.667 295.75 -3.99999 309.375C-231.667 323 -459.333 214 -573.167 159.5L-687 105L-687 -222L-573.167 -222C-459.333 -222 -231.667 -222 -3.99994 -222C223.667 -222 451.333 -222 679 -222C906.667 -222 1134.33 -222 1362 -222C1589.67 -222 1817.33 -222 1931.17 -222L2045 -222L2045 432Z" fill="white"/>
</svg>